<svg style="display: none">

   <symbol id="moon" viewBox="0 0 1046 1280" xmlns="http://www.w3.org/2000/svg" fill="none">
    <g transform="translate(0,1280) scale(0.1,-0.1)" fill="#000000" stroke="none">
      <path d="M5290 12793 c-630 -44 -1228 -222 -1942 -579 -461 -230 -1050 -542
      -1185 -626 -132 -82 -155 -102 -335 -281 -212 -212 -403 -389 -573 -532 -99
      -82 -122 -109 -210 -236 -54 -79 -111 -160 -126 -179 -28 -37 -314 -527 -391
      -670 -201 -374 -368 -897 -443 -1379 -65 -420 -80 -698 -79 -1451 0 -685 9
      -884 45 -1006 11 -38 26 -123 34 -189 22 -187 127 -582 223 -840 16 -44 60
      -147 97 -230 37 -82 161 -367 275 -633 l208 -482 85 -93 c46 -50 164 -186 261
      -302 245 -290 409 -466 604 -648 704 -654 1241 -999 1987 -1275 369 -136 773
      -254 1130 -329 120 -25 148 -28 361 -28 l232 0 204 -265 c112 -146 240 -324
      286 -396 l82 -132 218 -7 c353 -12 522 5 580 58 12 11 28 38 34 60 l12 39 44
      -6 c87 -12 128 8 226 107 l89 91 201 33 c111 19 204 37 207 41 3 4 18 86 32
      182 22 140 84 407 132 561 4 12 44 26 136 48 144 35 237 76 344 151 91 63 336
      202 399 225 51 18 253 150 421 275 127 94 459 387 592 522 111 113 143 160
      275 413 49 94 132 233 184 310 112 165 214 364 214 418 0 21 -2 37 -5 37 -2 0
      -71 -43 -152 -97 -491 -320 -904 -577 -1043 -648 -201 -102 -330 -149 -697
      -254 -78 -23 -146 -41 -151 -41 -5 0 20 93 55 208 201 652 254 909 358 1742
      20 157 45 344 56 415 19 117 20 157 15 395 -18 745 -54 1146 -137 1517 -38
      168 -199 650 -342 1024 l-44 116 149 198 148 198 0 61 c0 90 -19 332 -31 401
      -14 82 -46 181 -77 235 -28 50 -180 240 -271 340 l-59 65 68 70 c52 53 109
      133 229 325 88 140 158 256 157 258 -2 1 -176 -79 -387 -179 l-384 -182 -80
      17 c-283 61 -449 60 -950 -4 -311 -39 -336 -41 -427 -30 -197 23 -309 67 -473
      188 -168 124 -212 145 -318 150 l-88 4 20 -48 c119 -300 148 -362 228 -478
      l54 -79 -23 -15 c-42 -29 -120 -106 -236 -231 l-114 -125 5 -230 c7 -305 24
      -375 139 -569 38 -65 58 -110 58 -130 0 -24 -26 -69 -101 -177 -121 -173 -174
      -281 -267 -540 -190 -528 -255 -812 -337 -1475 -22 -177 -53 -551 -77 -915
      -17 -262 -17 -1103 0 -1275 33 -336 125 -896 171 -1045 11 -35 19 -66 16 -68
      -11 -11 -215 56 -310 102 -238 115 -436 251 -623 429 -129 122 -261 221 -432
      321 -48 28 -70 47 -83 75 -9 21 -65 94 -123 162 -293 343 -646 864 -819 1209
      -231 461 -371 933 -460 1555 -89 622 -91 1129 -4 1640 60 355 255 1055 372
      1335 96 230 416 713 667 1004 294 343 825 813 1263 1119 247 172 605 309 1182
      452 486 121 730 149 1350 160 369 6 617 17 905 41 378 31 510 63 510 124 0 10
      -17 36 -37 59 -31 34 -63 52 -163 95 -148 63 -208 81 -315 95 -157 21 -1243
      106 -1655 131 -460 27 -869 36 -1050 23z"/>
    </g>
  </symbol>

  <symbol id="sun" viewBox="0 0 64 64" fill="none" xmlns="http://www.w3.org/2000/svg">
    <circle cx="32" cy="32" r="14" fill="#ffcd00" />
      <g fill="#ffcd00">
        <line x1="32" y1="0" x2="32" y2="14" stroke="#ffcd00" strokeWidth="2" />
        <line x1="32" y1="50" x2="32" y2="64" stroke="#ffcd00" strokeWidth="2" />
        <line x1="0" y1="32" x2="14" y2="32" stroke="#ffcd00" strokeWidth="2" />
        <line x1="50" y1="32" x2="64" y2="32" stroke="#ffcd00" strokeWidth="2" />
        <line x1="10" y1="10" x2="19" y2="19" stroke="#ffcd00" strokeWidth="2" />
        <line x1="45" y1="45" x2="54" y2="54" stroke="#ffcd00" strokeWidth="2" />
        <line x1="10" y1="54" x2="19" y2="45" stroke="#ffcd00" strokeWidth="2" />
        <line x1="45" y1="19" x2="54" y2="10" stroke="#ffcd00" strokeWidth="2" />
      </g>
  </symbol>
  
  <!-- <symbol id="map" viewBox="0 0 24 24" fill="none" xmlns="http://www.w3.org/2000/svg">
  <path d="M5 9.92285C5 14.7747 9.24448 18.7869 11.1232 20.3252C11.3921 20.5454 11.5281 20.6568 11.7287 20.7132C11.8849 20.7572 12.1148 20.7572 12.271 20.7132C12.472 20.6567 12.6071 20.5463 12.877 20.3254C14.7557 18.7871 18.9999 14.7751 18.9999 9.9233C18.9999 8.08718 18.2625 6.32605 16.9497 5.02772C15.637 3.72939 13.8566 3 12.0001 3C10.1436 3 8.36301 3.7295 7.05025 5.02783C5.7375 6.32616 5 8.08674 5 9.92285Z" stroke="black" stroke-linecap="round" stroke-linejoin="round"/>
  <path d="M10 9C10 10.1046 10.8954 11 12 11C13.1046 11 14 10.1046 14 9C14 7.89543 13.1046 7 12 7C10.8954 7 10 7.89543 10 9Z" stroke="black" stroke-linecap="round" stroke-linejoin="round"/>
  </symbol> -->

  </svg>
